<svg xmlns="http://www.w3.org/2000/svg" viewBox="0 0 70.1 91.3"><path fill="none" stroke="#000" stroke-width="14" d="M12.2 43.6V29.3c0-29.7 46-29.7 46 0v14.3"/><path d="M0 43.6V67.5s7.7-8.7 14-11c8-3 18-2 34.2-5.4C54 50 70 44 70 44v-.4H0zM34.6 66.5C54 69 64.4 59 68.6 58.2c-9.8 21-44.7 20-44.7 20 20 5.5 36-2.7 36-2.7-9 15.3-43 13.3-43 13.3-3.1.3-5.7 2.1-6.3 2.5H70V49C60 59.8 36.6 66.6 34.6 66.5z"/><path fill="#fff" d="M8.8 24.8C20.2 1.5 36.2 4.8 45.5 6.2c0 0-12.2-5.8-24 0C10.2 11.7 8.8 24.8 8.8 24.8z"/></svg>