<svg xmlns="http://www.w3.org/2000/svg" data-icon="social-github" width="32" height="32" class="iconic iconic-social iconic-size-md iconic-social-github" viewBox="0 0 32 32"><title>Social Github</title><path fill-rule="evenodd" clip-rule="evenodd" d="M16 0C7.163 0 0 7.163 0 16c0 7.07 4.584 13.066 10.943 15.182.8.147 1.092-.347 1.092-.77 0-.38-.014-1.387-.022-2.722-4.45.967-5.39-2.145-5.39-2.145-.728-1.848-1.776-2.34-1.776-2.34-1.453-.993.11-.973.11-.973 1.606.113 2.45 1.65 2.45 1.65 1.428 2.444 3.746 1.738 4.657 1.328.145-1.034.56-1.74 1.016-2.14-3.553-.403-7.288-1.775-7.288-7.907 0-1.747.623-3.175 1.647-4.293-.165-.405-.714-2.032.156-4.234 0 0 1.343-.43 4.4 1.64 1.276-.355 2.645-.532 4.006-.54 1.36.007 2.728.185 4.006.54 3.055-2.07 4.396-1.64 4.396-1.64.873 2.203.324 3.83.16 4.234 1.024 1.12 1.644 2.547 1.644 4.293 0 6.147-3.74 7.5-7.305 7.895.575.494 1.086 1.47 1.086 2.963 0 2.14-.02 3.866-.02 4.39 0 .428.287.926 1.1.77C27.42 29.06 32 23.065 32 16c0-8.84-7.164-16.002-16-16.002z" class="iconic-container iconic-social-github iconic-property-fill" data-width="32" data-height="32"/></svg>