<svg xmlns="http://www.w3.org/2000/svg" data-icon="social-twitter" width="32" height="32" class="iconic iconic-social iconic-size-md iconic-social-twitter" viewBox="0 0 32 32"><title>Social Twitter</title><path d="M10.064 29C6.356 29 2.904 27.913 0 26.05c.514.062 1.036.093 1.566.093 3.076 0 5.907-1.05 8.153-2.81-2.874-.053-5.298-1.95-6.134-4.558.4.077.812.118 1.235.118.6 0 1.18-.08 1.73-.23-3.002-.603-5.265-3.256-5.265-6.436v-.083c.886.492 1.9.787 2.975.82C2.498 11.79 1.34 9.78 1.34 7.503c0-1.203.323-2.33.888-3.3 3.238 3.97 8.076 6.584 13.532 6.858-.112-.48-.17-.98-.17-1.496C15.59 5.94 18.53 3 22.155 3c1.888 0 3.595.797 4.792 2.073 1.495-.294 2.9-.84 4.17-1.593-.49 1.533-1.532 2.82-2.888 3.63 1.327-.158 2.592-.51 3.77-1.033-.88 1.316-1.993 2.472-3.276 3.398.013.28.02.565.02.85 0 8.673-6.604 18.674-18.68 18.674" class="iconic-container iconic-social-twitter iconic-property-fill" data-width="32" data-height="26"/></svg>