<svg xmlns="http://www.w3.org/2000/svg" viewBox="859.6 -736.1 613.3 553.5">
  <path d="M1381.2-276.8c7-16.3 10-33.4 24-46.2 16-14.7 25-10 35.7-33 15-33 15-76 16-111 2-53.6-5-91-35-135.4-45-66.3-95-103.6-173-117.8-87-16-197 12.8-271 59.3-59 37-106 126-101 195 3 42-20 9-17-16 4-38 32-96 52-128 53-86 178-118 272-125 76-6 136 11 192 60 28 26 54 53 73 87 24 42 26 96 23 144-3 46-11 93-37 131-14 20-51 83-65 127-23 2-2-61 11-90z"/>
  <path d="M1295-185c-5.4-38.2-28.5-60.2 5.2-91.6 19-17.8 76.8-19.8 85.3-45-11.3 33-46.2 58.8-60.7 93-8 18.3-12.5 42.8-29.8 43.6zm-36.8-411.2c13.4 14.3 51.5-52.2 51.7-52.3-2 1-5 51.5-1 57 19-18.7 11-38.3 45-26 32 12.2 8 32.4 11 35.6 11 17 20-5 15 23 3-4 24 16 27 20 7 10 0 15 3 24 0 1 40 105 2 98 2 1 5-25 3-28 4 8-28 13-25 20 6 6 35 22 20 35 36-32 25-88 16-128-6-24-13-81 11-24 16 39 17 111-7 147-4 5-62 45-64 42.5 2 3 31-56 7-56-12 1 2.4 27-6 31-3 1.6-51.6-49.4-39-45-3-16-31-10.3-22.7-38.4 3-9.3 31-12.6 34.6-28 5 4-50.6 14.8-54.7 17.4-66.6 42-34.7-14-37-37-4.6-38-60-48-89-48.7-27.8-.6-85 5.8-102 31.7-17.7 27 9.7 53.7 38.6 50.3 22-3 38-33 59.7-37 28-4.6 14 8 11 12 41 117 64 41 56.4 214.6-21-6-41-44-22-61-42 19-77.2-53-34-73-20.6-43.5-106 19-83.3-16.4 4.3-22 12.3-14.5-57.2-64-4 27.2 66.4 63-3 46-63.6-69.4-5.6-33.7-18.5-89.3-18-1.5-11 59.3-39 48.8-13-5 10-38 12-37.5-28-2 36-44.6 40-47.5 13-8 44-29 47-43s-22-8-11-29c2.7-4.3 43.8-15 48-15.4 16-1 20 1 35 5 6-3 12-5 19-4 1 6 3 10.7 8 14-2.3-34.5 16-31 42-28.4 15.8 1.8 31.7 5.8 45 13.8 11 7 22 32 26 25 7.8-18.7 21-40 19-9.3-2.6 30.8-41 53-38.6 55z"/>
  <path d="M1308.5-345.5c9.7-3.7-5.7 25.3-8 27.3-14.2 12.8-8-32.7-24.6.3-4-2-7-4-11-5 3 6 5 13 7 19-8 16-18-24-17-20-3-10 3-18 2-28-1-20-8-24-14-43-9-29-8-29 12-29 3-11 9-38 27-27 13 9-6 28 5 34 0 0 10-43 18-31 3 6 4 24 2 26l9-1c6 8-24 29-22 32 1 4 25-16 28-16 7 0-2 29-3 29 11.4 0 14-26 22 1 2.2 9-21 8-22 16 1.6 6 16-2 18-1-2-.3-14 43-31.3 19.7l1.7-2.2zm-328.8-67.7c-20-3 10.6-7.6 10.7-15.7 0-5-19-7-19 8-1 17-55.5-22-52.5-39 0-2 26 3 9-14.3-3-10 11-7.5 42 30.5 11-18-44-39-44-48-6-12 118 8.6 125 72-17 1-52 10.7-72 7.8zm-66-65c5.5 2.5 1.7 44.3-15.5 24.7-17.2-19.5 2-110 8.5-104.3s-9.3 72 7 79.6zm185.3 80.8c-4-1-10.7-4.4-12-17-1.5-12.6 17 11.8 23-8.6 7-7 61.7 82 56 104-50.7-51.7-36.3-101-67-78.4zM965.5-601c7.2-5 9.2 11 13.2 10 7.7-1 15.7-1 24.7-7 6-4 7-12 14.4-18 2.7-3 16.2-4 16.4-5 5-9-12-26 4.6-27 21.6-2 11 29 3.5 36-7.7 7-14 3-22.6 9-6 4-31.5 26.8-35.8 26-5-1-25-20.3-19-24zm413.2 246.2c7.2-10 19-24 31.8-18.2 6.2 2.8-39.6 46.6-46.3 48.2-1.3 0 11.6-26 14.5-30zm-243 43.2c6.6-18 55.5 8 55.3 18.8 0 7.8-55-19.6-55.2-18.8zM953-556.6c-12-2.8 1-36.8 16.6-21.7 3.7 3.5 13.4 4.3 13.4 4.3s-10 13-30 17.4zm339-141c-1-4.4 68 23 68 39-32.3-19.7-64.6-18.2-68-39zm22 404.6c-16.5-1.5 12-16.5 44.5-30.7 17 10-44 30.7-44.5 30.7z"/>
  <path d="M1338.6-334.7c8-17.3 30.5-13.4 25-4.7-5 3.6-49.5 46.4-25 4.7zM942-628.2c.2 0-23.2 61-33 53.6 0 0 27.4-57.3 33-53.6zm-17.2 121c15.7 2.3 2.5-21.7 3-23 9.8-6 17 9.3 16.8 9.3 0 0 7.4 18-19.8 14zm77.5-105.2c-21.5-3 5.4-28.8 20-17 5.3 4-17.3 17-20 17-3-.5 1.3 0 0 0zm-57.3 74c-3-12.8 23.6-1.3 23.2 9.4 0 0-21.7-3.7-23-9.4h-.2z"/>
  <path d="M945-521.4c8.3-.8 23.8 20.3 14 25.2-7.5 3.8-16-21-6.5-10.6-3.8-8-7.5-14.6-7.5-14.6zM1364.5-626c2.5-2 28.6 19 22.5 20-7 .6-27.4-15.2-22.5-20z"/>
</svg>
