<?xml version="1.0" standalone="no"?>
<!DOCTYPE svg PUBLIC "-//W3C//DTD SVG 20010904//EN"
 "http://www.w3.org/TR/2001/REC-SVG-20010904/DTD/svg10.dtd">
<svg version="1.0" xmlns="http://www.w3.org/2000/svg"
 width="492.000000pt" height="443.000000pt" viewBox="0 0 492.000000 443.000000"
 preserveAspectRatio="xMidYMid meet">
<metadata>
Created by potrace 1.11, written by Peter Selinger 2001-2013
</metadata>
<g transform="translate(0.000000,443.000000) scale(0.100000,-0.100000)"
fill="#000000" stroke="none">
<path d="M2658 4425 c-2 -1 -41 -6 -88 -9 -47 -4 -94 -9 -105 -11 -11 -2 -42
-7 -68 -10 -26 -3 -71 -10 -100 -16 -29 -5 -63 -12 -77 -14 -14 -3 -36 -7 -50
-10 -14 -3 -38 -8 -55 -11 -232 -41 -757 -206 -945 -296 -248 -119 -533 -332
-645 -483 -17 -22 -33 -42 -36 -45 -16 -12 -112 -177 -148 -252 -21 -46 -62
-148 -90 -228 -29 -80 -58 -158 -65 -175 -8 -16 -28 -59 -44 -95 -16 -36 -40
-87 -52 -115 -32 -69 -69 -173 -78 -215 -4 -19 -7 -82 -7 -140 0 -94 3 -110
25 -150 19 -34 35 -48 63 -57 59 -20 67 -11 63 65 -2 37 -14 98 -26 137 -40
125 -15 232 120 518 23 49 68 168 102 265 65 193 120 307 194 404 71 94 190
208 269 259 170 110 353 214 454 259 124 55 423 155 521 175 8 2 45 10 81 19
37 8 78 17 90 20 13 2 42 9 64 14 22 6 56 13 75 16 19 3 46 8 60 11 14 2 36 7
50 10 14 2 39 7 55 9 17 3 71 12 120 20 177 29 257 38 360 38 59 1 204 -9 241
-16 10 -2 39 -7 64 -11 56 -9 305 -63 345 -75 17 -5 55 -17 85 -26 30 -9 103
-38 162 -65 59 -27 113 -49 121 -49 8 0 14 -7 13 -16 -1 -18 16 -30 54 -38 52
-12 271 -202 370 -321 18 -22 56 -65 84 -95 121 -132 160 -184 304 -410 100
-157 112 -182 151 -303 l31 -99 3 -281 c1 -155 -1 -311 -5 -347 -7 -64 -15
-161 -23 -270 -2 -30 -8 -93 -14 -140 -6 -47 -12 -103 -15 -125 -5 -49 -67
-255 -99 -327 -29 -66 -84 -125 -123 -133 -52 -10 -117 -49 -160 -94 -66 -68
-153 -245 -170 -346 -3 -22 -17 -51 -29 -65 -13 -14 -28 -44 -34 -67 -6 -22
-29 -63 -51 -89 -26 -32 -40 -59 -41 -79 -3 -110 -6 -124 -49 -265 -16 -52
-31 -112 -33 -133 l-5 -37 78 0 78 0 6 30 c9 48 172 453 229 570 87 180 165
299 269 412 62 67 123 175 149 260 12 40 34 93 48 118 26 43 52 124 65 200 3
19 8 44 10 56 2 12 7 45 11 75 4 30 9 57 11 60 2 3 6 55 9 115 3 60 9 127 15
149 9 38 7 522 -3 575 -3 14 -8 46 -11 70 -3 25 -8 56 -11 70 -2 13 -7 42 -11
64 -3 22 -12 58 -19 80 -7 23 -18 71 -23 108 -14 88 -65 185 -143 267 -66 70
-78 90 -103 168 -22 66 -75 131 -259 317 -116 117 -160 155 -207 177 -47 22
-69 41 -105 91 -52 70 -86 104 -148 146 -141 97 -407 180 -692 216 -22 3 -60
8 -85 12 -42 6 -416 14 -422 9z"/>
<path d="M3470 4096 c26 -25 174 -106 195 -106 6 0 36 -18 66 -41 73 -55 186
-124 233 -144 37 -15 38 -15 32 1 -4 10 -26 42 -49 71 -33 41 -59 61 -122 92
-44 21 -98 44 -120 51 -41 13 -94 35 -179 76 -66 32 -88 32 -56 0z"/>
<path d="M2600 4070 c-89 -8 -106 -25 -126 -124 -3 -11 -6 -42 -8 -70 -3 -28
-5 -55 -5 -61 -2 -17 -18 9 -31 50 -28 86 -64 106 -100 55 -24 -34 -79 -44
-76 -13 2 28 -58 55 -130 58 -86 4 -145 -16 -184 -63 -16 -20 -35 -37 -42 -37
-7 -1 -52 -5 -100 -9 -137 -11 -195 -39 -231 -114 -26 -52 -9 -82 71 -131 47
-30 75 -71 59 -87 -4 -5 -38 -10 -84 -13 -7 -1 -38 -39 -68 -86 -56 -85 -95
-122 -114 -111 -22 14 -81 9 -100 -8 -10 -10 -29 -45 -42 -79 -26 -70 -35 -80
-62 -65 -11 6 -40 8 -64 5 -128 -14 -304 -293 -202 -320 21 -6 21 -7 -10 -42
-17 -20 -34 -50 -38 -66 -4 -22 -11 -29 -28 -29 -28 0 -32 -11 -29 -75 1 -27
3 -59 3 -71 1 -12 13 -34 27 -50 l27 -28 26 31 c14 17 54 47 88 67 35 20 67
45 72 55 6 9 11 46 12 82 3 95 14 125 56 153 20 14 40 23 45 20 17 -10 7 -44
-22 -77 -16 -19 -28 -36 -25 -38 2 -3 6 -25 9 -51 13 -102 27 -176 41 -210 5
-12 -11 -7 -62 19 -77 39 -106 38 -160 -3 -38 -29 -51 -67 -32 -90 7 -9 39
-34 71 -56 32 -21 72 -54 89 -73 18 -19 50 -41 73 -49 l41 -15 -60 6 c-33 3
-76 11 -95 17 -30 10 -35 16 -33 41 3 39 -11 53 -50 51 -24 -2 -41 6 -72 34
-48 44 -61 49 -98 39 -22 -6 -43 -1 -92 21 -110 50 -137 60 -165 60 -44 0 -47
-28 -5 -46 19 -7 39 -14 44 -14 5 0 27 -15 50 -34 57 -48 124 -72 157 -57 14
6 27 11 29 11 11 0 20 -68 15 -114 -5 -48 -3 -72 16 -136 l7 -25 -22 21 c-13
12 -24 37 -27 65 -9 81 -25 109 -63 109 -14 0 -21 -7 -22 -20 -1 -11 -3 -24
-4 -30 -1 -5 -3 -19 -4 -29 -2 -30 -26 -32 -69 -4 -39 26 -67 65 -55 77 12 11
22 6 28 -14 3 -11 14 -20 24 -20 19 0 51 30 51 48 0 19 -42 35 -100 37 -90 3
-130 -22 -75 -47 44 -20 25 -46 -40 -53 -11 -1 -23 -3 -27 -4 -29 -5 17 -81
49 -81 11 0 14 -7 10 -27 -7 -37 0 -49 39 -74 19 -11 43 -37 53 -58 24 -46 56
-74 106 -94 70 -26 223 -6 197 26 -6 7 -28 14 -49 15 -21 2 -47 5 -58 7 -11 2
-32 4 -47 4 -39 1 -35 19 7 37 35 14 83 12 150 -6 17 -5 47 -11 68 -15 36 -6
38 -7 23 -24 -14 -16 -57 -37 -140 -70 -16 -7 -26 -14 -24 -17 3 -2 35 -7 72
-9 78 -6 108 6 171 67 22 21 57 43 78 49 20 5 43 19 50 29 16 27 30 25 55 -9
17 -23 28 -29 49 -26 16 2 52 4 80 4 39 1 58 6 73 21 21 21 50 27 50 10 0 -20
-47 -38 -114 -44 -132 -13 -121 -33 22 -40 66 -4 75 -2 111 24 54 40 73 68 60
92 -6 11 -18 22 -27 26 -23 8 -37 23 -56 59 -16 32 -47 50 -66 38 -6 -3 -10 4
-10 19 0 21 4 24 28 20 81 -12 118 -8 127 14 25 63 5 106 -43 93 -33 -9 -219
38 -254 65 -13 9 -34 30 -46 46 l-24 28 83 -30 c45 -16 90 -37 100 -46 39 -35
35 29 -7 125 -13 29 -24 55 -24 56 0 2 16 -12 35 -29 19 -18 72 -53 117 -79
107 -60 102 -56 185 -167 69 -92 123 -152 123 -136 0 5 6 3 14 -3 19 -16 42
-4 59 30 l14 30 26 -35 c53 -68 52 -100 -1 -111 -59 -11 -173 -98 -155 -116 5
-5 75 14 159 43 139 48 157 51 266 56 130 5 124 7 218 -77 l35 -31 -31 2 c-63
4 -134 -72 -142 -150 -3 -39 4 -68 43 -167 26 -66 58 -138 71 -160 33 -58 104
-128 144 -145 31 -13 40 -12 109 13 l74 26 -30 -32 c-25 -26 -32 -44 -37 -93
-8 -71 0 -97 50 -162 26 -35 42 -47 62 -47 24 -1 27 -4 24 -31 -2 -22 5 -40
23 -62 26 -32 99 -72 129 -72 29 0 45 57 41 146 -6 131 -31 279 -85 514 -13
57 -25 153 -30 240 -4 80 -12 157 -18 173 -11 25 -10 27 13 27 18 0 31 10 45
33 29 47 25 72 -14 102 -23 18 -40 43 -51 75 -18 53 -37 75 -76 85 -15 4 -46
26 -70 51 -59 60 -99 58 -99 -7 0 -10 -7 -19 -15 -19 -22 0 -18 22 10 61 52
72 52 71 6 150 -22 39 -41 80 -41 90 0 15 -7 19 -34 19 -47 0 -52 14 -10 29
18 7 34 17 34 22 0 17 -67 39 -122 40 -74 3 -105 -8 -112 -37 -4 -15 -22 -32
-49 -45 -99 -50 -115 -80 -120 -216 -2 -52 -9 -75 -13 -42 -1 5 -2 12 -3 17 0
4 -10 21 -21 39 l-19 32 -43 -14 c-24 -8 -72 -21 -107 -29 l-63 -14 -77 38
c-42 20 -92 45 -111 54 -94 44 -154 125 -152 208 2 94 48 136 260 239 270 130
435 165 692 145 215 -17 311 -47 411 -128 30 -24 68 -53 84 -63 79 -50 155
-155 155 -214 0 -47 -39 -160 -87 -250 -24 -46 -42 -90 -39 -98 7 -18 67 -43
104 -43 16 0 37 9 47 20 23 25 42 26 50 1 3 -11 13 -22 22 -25 25 -10 88 40
114 90 25 47 39 53 59 29 22 -26 75 -19 103 15 31 37 46 38 77 5 49 -53 133
-15 144 64 4 22 63 61 95 61 23 0 19 -6 -44 -70 -58 -58 -70 -76 -70 -103 l0
-32 -61 3 c-63 3 -83 -7 -88 -45 -4 -26 21 -92 48 -127 13 -17 27 -42 31 -56
12 -40 25 -51 45 -40 29 15 37 12 60 -20 l21 -30 -24 9 c-31 12 -48 1 -42 -29
6 -30 14 -37 45 -42 21 -2 34 -21 79 -113 l53 -110 32 38 c50 60 60 53 56 -45
-2 -50 2 -54 53 -48 10 1 27 -6 38 -16 26 -24 33 -13 35 54 3 99 25 189 44
177 5 -3 10 -29 10 -56 0 -29 8 -65 19 -87 26 -50 40 -107 31 -121 -4 -7 -15
-13 -24 -15 -18 -2 -106 -136 -106 -161 0 -36 24 -18 119 92 29 34 66 67 82
74 27 11 33 9 58 -15 45 -43 76 -36 141 32 74 78 150 231 175 352 2 8 8 35 13
60 6 25 14 65 17 90 4 24 8 47 10 50 10 17 19 136 19 275 1 139 -2 168 -20
220 -12 33 -25 89 -28 124 -3 35 -10 69 -15 75 -5 6 -17 45 -26 86 -22 92 -44
136 -89 185 -61 65 -83 24 -45 -86 11 -35 23 -77 26 -94 5 -34 21 -96 52 -200
12 -38 24 -90 27 -115 3 -25 7 -56 9 -69 7 -42 19 -294 17 -358 -1 -51 -15
-129 -35 -198 -36 -121 -44 -139 -74 -163 -20 -14 -33 -33 -33 -46 0 -15 -15
-33 -43 -53 l-43 -31 -2 31 c-2 17 3 34 10 39 10 6 6 14 -14 29 -15 11 -55 54
-88 95 l-60 74 49 0 c42 0 54 5 79 30 17 16 38 51 48 77 l18 47 13 -30 c17
-40 16 -74 -2 -74 -16 0 -18 -6 -15 -61 1 -21 -3 -40 -9 -44 -16 -9 -13 -25 5
-25 8 0 35 19 60 43 37 35 45 49 46 82 1 22 10 54 21 73 11 19 21 58 24 95 5
76 -15 121 -70 157 -38 24 -38 24 -31 75 19 138 9 280 -21 305 -11 9 -22 6
-48 -14 -29 -22 -36 -24 -46 -12 -9 11 -4 22 24 56 62 74 41 111 -74 132 -42
8 -61 16 -61 26 0 66 -47 121 -91 107 -28 -9 -24 17 6 45 19 18 25 33 23 55
-3 29 -6 31 -82 49 l-79 19 56 28 c31 16 58 37 62 47 9 31 -12 70 -52 98 -143
97 -180 117 -213 117 -23 0 -51 11 -84 34 -26 18 -54 33 -62 33 -27 0 -72 -61
-104 -143 -66 -167 -90 -185 -41 -31 17 53 34 127 38 163 5 52 11 69 29 84 13
10 21 24 17 32 -3 10 1 15 15 15 11 0 24 6 30 13 9 10 -1 19 -42 40 -29 15
-60 27 -68 27 -31 0 -53 -40 -110 -197 l-33 -93 -50 -16 c-54 -18 -153 -67
-223 -110 -38 -22 -42 -24 -34 -7 25 45 115 128 225 207 73 52 117 106 117
145 0 13 -25 63 -56 112 -45 69 -67 93 -104 113 -57 31 -112 39 -137 21 -17
-13 -17 -15 0 -48 10 -19 42 -59 71 -88 50 -51 51 -54 28 -56 -34 -2 -108 73
-153 156 -49 90 -74 102 -242 116 -42 3 -89 15 -121 30 -30 14 -73 28 -97 31
-24 3 -48 6 -54 7 -5 2 -35 0 -65 -3z m-558 -347 c-3 -33 25 -73 51 -73 8 0
24 -11 37 -25 27 -29 21 -30 -37 -10 -23 8 -50 12 -60 8 -10 -3 -54 -43 -98
-89 -126 -129 -223 -184 -233 -131 -6 28 16 46 77 63 118 34 187 112 222 248
8 34 16 46 28 44 12 -2 15 -12 13 -35z m917 -15 c44 -69 64 -138 41 -138 -16
0 -38 42 -53 103 -16 60 -11 72 12 35z m-466 -76 c-38 -33 -48 -37 -90 -36
-27 1 -57 6 -67 10 -10 4 -33 2 -50 -5 -44 -18 -61 -18 -61 -2 0 17 35 28 119
36 34 3 68 8 76 10 8 2 31 7 50 10 19 3 36 8 39 11 2 2 9 4 15 4 6 -1 -8 -18
-31 -38z m251 -141 c67 -54 94 -84 89 -97 -8 -20 -18 -18 -50 14 -57 56 -84
72 -103 62 -10 -6 -22 -19 -25 -30 -8 -26 -52 -48 -90 -45 -50 3 -55 5 -55 14
0 5 8 8 18 6 22 -3 47 10 101 54 67 54 73 55 115 22z m296 -129 c61 -30 25
-45 -70 -30 -50 8 -70 18 -70 34 0 20 96 17 140 -4z m-1746 -365 c17 -25 11
-67 -9 -67 -7 0 -25 14 -39 31 -21 24 -24 34 -15 45 17 21 47 17 63 -9z m2927
-325 c-12 -23 -60 -67 -91 -83 -34 -18 -218 -19 -216 -1 5 30 24 36 81 22 71
-17 115 -5 174 49 44 40 70 46 52 13z m-240 -395 c32 -20 42 -51 33 -104 -15
-91 -10 -107 43 -129 59 -25 143 -86 143 -104 0 -31 -13 -30 -44 4 -17 19 -58
50 -91 68 -72 40 -108 90 -111 152 -2 54 -8 65 -50 82 -34 14 -45 38 -21 48
17 7 75 -3 98 -17z m-2990 -20 c19 -13 53 -34 77 -47 51 -29 60 -64 13 -50
-33 9 -118 57 -127 71 -3 5 -16 9 -30 9 -28 0 -32 15 -6 29 25 15 36 13 73
-12z"/>
<path d="M1377 3686 c-8 -9 -14 -26 -11 -39 2 -12 10 -51 18 -87 7 -36 13 -66
12 -67 -1 -1 -24 -4 -51 -8 -72 -8 -158 -83 -167 -145 -2 -17 -10 -25 -23 -26
-29 -2 -87 -29 -111 -52 -11 -11 -30 -23 -43 -27 -22 -7 -34 3 -109 88 -23 26
-41 30 -54 13 -11 -17 11 -55 72 -127 33 -38 60 -74 60 -79 0 -21 -49 -9 -85
20 -50 40 -79 46 -121 26 -71 -33 -99 -135 -49 -174 20 -16 32 -18 53 -12 15
5 52 16 82 25 38 12 68 31 99 61 24 24 53 44 64 44 12 0 35 13 52 29 16 16 66
51 110 78 56 34 81 56 85 73 7 29 42 50 85 50 37 0 124 56 159 103 46 60 42
155 -7 212 -28 33 -96 45 -120 21z"/>
<path d="M1268 3576 c-1 -2 -30 -6 -63 -9 -80 -8 -139 -28 -143 -49 -2 -9 13
-34 32 -55 l35 -38 54 28 c94 49 142 105 103 120 -8 3 -16 4 -18 3z"/>
<path d="M612 3533 c-60 -58 -205 -309 -218 -379 -5 -26 -2 -40 8 -51 14 -13
18 -12 36 14 43 60 218 431 208 440 -2 3 -18 -8 -34 -24z"/>
<path d="M4030 3523 c1 -23 55 -83 102 -111 20 -12 39 -29 42 -37 9 -24 36
-18 36 8 0 24 -28 54 -112 120 -51 41 -68 46 -68 20z"/>
<path d="M363 2974 c3 -3 -3 -23 -14 -42 -10 -20 -19 -41 -19 -45 0 -5 -6 -23
-14 -40 -45 -100 -126 -349 -142 -437 -9 -55 -7 -152 5 -183 6 -15 25 -36 43
-45 18 -9 48 -34 68 -54 42 -45 80 -50 105 -15 22 32 47 120 48 177 1 43 -2
53 -31 81 -17 17 -37 50 -43 73 -13 46 -16 175 -6 251 18 140 28 265 22 275
-3 5 -11 10 -17 10 -6 0 -9 -3 -5 -6z"/>
<path d="M686 2874 c-21 -20 -8 -52 36 -95 67 -65 116 -69 133 -11 15 51 -133
143 -169 106z"/>
<path d="M559 2783 c-31 -8 -29 -41 4 -73 27 -26 29 -33 19 -54 -6 -14 -26
-33 -44 -42 -32 -17 -32 -17 -9 -25 21 -8 62 -5 104 7 12 4 17 16 17 43 0 22
6 44 15 51 13 11 14 10 9 -3 -4 -10 5 -29 21 -49 23 -28 25 -34 11 -36 -24 -5
-20 -18 17 -53 66 -64 81 -59 73 21 -2 25 -5 51 -5 58 -1 18 -59 72 -77 72 -9
0 -33 18 -54 40 -21 22 -43 40 -48 40 -6 0 -16 2 -24 4 -7 2 -20 2 -29 -1z"/>
<path d="M2795 2460 c-10 -17 14 -39 74 -68 67 -32 87 -34 83 -8 -9 52 -135
112 -157 76z"/>
<path d="M3299 2176 c-11 -19 -40 -47 -64 -61 -57 -33 -68 -54 -60 -113 l6
-47 -28 33 c-15 18 -33 32 -38 32 -6 0 -32 -45 -59 -99 -73 -148 -73 -149 103
-300 34 -29 68 -64 74 -78 9 -21 7 -27 -22 -53 -30 -28 -32 -33 -25 -75 6 -45
6 -45 -30 -60 -20 -9 -40 -23 -43 -31 -3 -8 11 -49 31 -89 l36 -75 -31 -44
c-34 -48 -33 -76 1 -76 11 0 40 -18 65 -41 77 -71 107 -36 57 64 -30 60 -24
73 18 37 34 -30 46 -25 59 25 6 25 17 45 24 45 6 0 25 -20 40 -45 16 -25 36
-45 45 -46 10 0 26 -2 37 -5 37 -7 82 -7 94 1 9 5 11 18 7 38 -5 24 -1 36 20
58 20 21 26 37 26 75 1 27 3 41 5 32 6 -24 44 -23 93 2 39 20 52 33 29 27 -27
-5 -16 20 15 37 49 26 118 95 114 114 -3 14 -17 17 -81 17 -90 0 -100 14 -25
33 60 15 103 43 111 71 7 28 -29 95 -60 112 -16 9 -28 10 -30 4 -13 -39 -42
-80 -60 -86 -31 -11 -29 2 7 42 16 19 30 44 30 57 0 18 -5 22 -31 22 l-30 0
17 29 c23 39 13 77 -23 84 -39 7 -51 0 -64 -41 -6 -21 -15 -42 -20 -48 -5 -6
-6 -14 -2 -17 3 -4 2 -7 -4 -7 -6 0 -13 -9 -16 -19 -7 -28 -55 -57 -75 -45
-29 19 -24 33 17 45 59 18 69 34 47 72 l-17 31 55 52 c58 53 63 63 45 81 -9 9
-19 8 -40 -3 -28 -14 -29 -14 -29 10 0 14 5 28 10 31 6 3 10 17 10 30 0 23
-13 27 -38 11 -7 -4 -15 -6 -17 -4 -5 4 6 46 20 79 9 23 -21 49 -56 49 -26 0
-33 -6 -49 -42 -10 -24 -24 -70 -30 -103 -7 -33 -18 -71 -25 -85 -12 -23 -14
-24 -21 -6 -4 12 4 51 21 103 23 70 26 88 16 110 -9 21 -17 24 -41 21 -20 -3
-30 0 -30 9 0 18 -37 53 -55 53 -9 0 -25 -15 -36 -34z m298 -776 c-3 -13 3
-24 18 -34 22 -14 41 -66 24 -66 -5 0 -9 5 -9 11 0 6 -17 27 -37 46 -37 33
-37 35 -19 49 26 19 29 18 23 -6z"/>
<path d="M1995 1897 c-4 -13 -4 -35 -1 -50 5 -27 4 -27 -24 -12 -37 19 -160
21 -160 2 0 -23 51 -92 84 -115 48 -33 71 -28 120 24 36 38 47 44 69 39 31 -8
51 -48 66 -127 5 -31 22 -85 37 -119 22 -55 25 -72 19 -119 -15 -112 -13 -149
10 -180 47 -64 182 -160 224 -160 42 0 25 60 -49 170 -55 81 -67 108 -101 227
-38 132 -65 193 -114 258 -55 72 -156 185 -166 185 -5 0 -11 -10 -14 -23z"/>
<path d="M4262 1491 c-69 -57 -131 -128 -133 -150 -1 -9 -2 -28 -3 -43 -2 -28
-31 -68 -50 -68 -5 0 -25 -14 -43 -32 -59 -57 -7 -87 77 -43 16 8 56 41 89 73
53 50 61 54 61 35 0 -31 42 -57 77 -48 39 9 73 33 73 50 0 29 -90 60 -123 43
-10 -5 11 35 47 88 37 54 66 102 66 107 0 15 -33 36 -57 37 -12 0 -48 -22 -81
-49z"/>
<path d="M4025 1422 c-10 -2 -30 -11 -43 -20 -31 -20 -27 -66 6 -70 12 -2 22
1 22 6 0 6 16 20 34 32 47 28 34 64 -19 52z"/>
<path d="M3890 1345 c-7 -8 -10 -15 -6 -15 12 0 -73 -149 -104 -182 -45 -47
-77 -131 -34 -88 6 6 28 12 50 13 34 2 39 5 38 25 -2 25 -3 25 29 13 21 -8 31
-4 66 25 47 40 53 71 17 80 -27 6 -41 30 -25 40 5 3 15 1 22 -4 25 -19 56 -20
73 -1 16 17 15 20 -11 41 -15 13 -36 33 -48 46 -24 26 -49 28 -67 7z"/>
<path d="M3857 1057 c-71 -53 -116 -79 -166 -95 -39 -13 -80 -31 -92 -40 -20
-17 -20 -19 -5 -34 18 -19 26 -18 119 11 100 31 144 57 220 132 60 58 68 70
57 83 -7 9 -18 16 -24 16 -6 0 -55 -33 -109 -73z"/>
<path d="M4122 1084 c-34 -15 -56 -31 -59 -44 -7 -26 -71 -60 -112 -60 -17 0
-49 -13 -73 -29 -43 -28 -192 -106 -299 -155 -45 -21 -60 -34 -79 -71 -13 -25
-26 -45 -30 -45 -3 0 -27 -20 -53 -44 -37 -36 -50 -58 -68 -118 -12 -40 -23
-100 -25 -134 -3 -55 0 -66 30 -110 18 -27 36 -62 40 -79 4 -16 20 -48 35 -70
30 -42 53 -100 44 -109 -3 -2 25 -5 62 -5 l67 0 19 44 c11 24 23 63 28 87 5
24 25 88 44 143 20 55 38 120 40 145 6 57 11 68 68 165 25 44 49 90 53 102 4
13 18 24 36 28 17 4 36 16 44 27 13 18 13 23 -1 36 -14 15 -14 17 2 27 10 5
38 29 64 52 49 45 65 51 78 30 26 -43 58 -24 137 78 22 28 55 67 74 87 32 33
33 38 17 44 -21 9 -63 -13 -79 -40 -6 -11 -24 -34 -41 -52 -16 -17 -42 -45
-57 -63 -14 -17 -31 -31 -37 -31 -17 0 50 98 86 126 34 26 41 55 13 59 -8 2
-39 -8 -68 -21z"/>
<path d="M2242 1084 c-13 -9 -28 -28 -33 -42 -15 -40 7 -54 93 -60 52 -3 88
-12 123 -30 28 -14 55 -25 61 -24 7 1 15 -9 18 -23 12 -48 99 -81 130 -49 14
13 14 19 1 43 -17 34 -56 61 -88 61 -13 0 -42 12 -63 27 -177 122 -195 130
-242 97z"/>
</g>
</svg>
