<svg xmlns="http://www.w3.org/2000/svg" viewBox="272 -272 640 640">
  <path d="M788 347c.3-33 17.8-63 30.2-91.8 7-16.3 10-33.4 24-46.2 16-14.7 25-10 35.7-33 15-33 15-76 16-111 2-53.6-5-91-35-135.4-45-66.3-95-103.6-173-117.8-87-16-197 12.8-271 59.3C356-92 309-3 314 66c3.4 42-19.6 9-16.6-16.2 4.6-38 32-95.8 52-127.8 53-86 178-118.2 272.4-125.8 76-6.2 136.8 10.8 192 60 28.5 25.4 54.5 53 73 86.2 24 42.3 26.4 95.8 23.4 143.8-2.8 45.3-10.5 93-37 130.6-14.2 20-28.3 36.8-39 59.2-5.7 12-10.6 24.3-15.4 36.6-8.6 22.6-4.4 34.4-31 34.4 0-8.8 6.3 0 0 0 0-16.4 6.3 0 0 0z"/>
  <path d="M732 347c-2.5-17.6-19.2-30.3-19.2-48.6 0-17.6 14-35.5 26.7-45.8 22.7-18.5 34.7-12 81.3-41.7 11.7-8-37.3 44-39.3 47-6.7 9-13 21-17 33-8.3 22-4.2 56-32.5 56-.8-6 5.3 0 0 0-.8-6 5.3 0 0 0zm1.6-468.2c5.7 16.2-2 20.7-13.8 31-3.2 2.7-29.6 20.7-24.6 26 1.5 1.6 35-21 37.7-24 6-7 7-23.8 14-28.3 9-6-10 41.6-1 57 18-17.3 8-39.7 40-28 8 3 25 10.2 28 18.6 3 9-9 23-12 19 4 6 15-1 19 5 3 6-3 13-4 18 7-9 7 4 11 7 2 2 5 6 8 9 5 5 13 1 15 10 1 6-13 9-8 15s10-5 16 10c4 12-1 26 4 39 3 11 9 55-13 51 3 1 5-26 3-28 4 6-27 14-25 20 21 19 26 6 19 33-2 10 15-17 17-21 4-8 7-17 9-26 5-27-2-53-8-80-2-8-17-54-4-51s17 35 19 43c8 41 11 85-7 124-3 7-8 16-14 22-12 11-13 3-25 6-5 2-29 19-28 20-5-7 15-20 16-25 1-4-6.8-31-8.4-31-10 .7 1 27.8-6 31 2-1-14-6-13-4-2-3.2 3-15-2-16.2-4.4-2-48-33.6-24-25-2.4-13-10.6-4-16-11.4-5-7-10-20-6.4-27 1-2 13-5.6 16.5-8 3-2 17-16 18-20-10-7.3-17 14-23 16-6.8 2.6-15 0-21-.2-5-.5-16.5 2.5-21 5-4.7 2-6 9.5-11 12-5 2-4-6.4-7.6-6-10 .7-18 11-21-4.5-2-10 13-23.2 14-34 2-23-19-38-38-46-40-16-86-13-125 4-19 8-47 23-33 47 6.4 12 23.4 20.8 37 22 16 2 89-68.2 85-31.3 0 3-9 3-9 5.6 9 8 16 6 18 21 0 2-3.3 20-5 20 14 0-8-12.4 14-5 4 1 13 11 16 14 6 6.5 25.7 30 2.7 30 16.7 28 16 86 15.7 117.7 0 18.5-2 24.7-17 9.3-14-15-31-34-11-52-26 12-43-6-51.4-31-8.6-24.7-2.3-33 17.3-42-16-12.7-27-15-47-11.5-3.5 1-38.3 6.8-39 10 2.7-21 33-5.6 17-32.3-14 26-51-47.2-71.4-46-1 7 17 18.8 10 27-3 3 23.5 9.4 23 17-3 21.4-56-6.4-62-10.5-9.5-6-32.6-17-22-28 5-5 35 1 33 3 3-3-1-51-4.4-51.4-12-1-13 42-29 48-22 8-15-22.3-6-20-2-3.4 3-18 8-17-14-1-2-21 3-26 4.4-6 9.6-9 15.6-13 5-2 12.4 2 15.2 0 5.5-3 6.6-13 13-18 4-3.3 11-3 16.4-7 0-.3 26-26.5 25-22.3 3-12-16-11-17-23-1-15.3 17-14.6 27-16.4 13-2.6 22-10 33-13 15-4 19 7.5 27 7.4 9 0 10-8.4 19-4 3 2 2 15.6 8 14-3-41 20-34 49-27 13 3 28 2 38 12 9.2 9 10 22 26 25-5-1 3.2-36 14.3-5l3-2z"/>
  <path d="M745.5 186.5c-2.6 1 10.5 11.5 1.5 22-13.8 15.8-22.6-9.2-28.8-6.4-1.5 4-3.3 8-5.3 12-2 1-9-9-11-5-1 3 9 13 7 19-2 4-21-9-22-11-3-4 8-9 8-13-1-3-8-9-8-13 1-7 7-7 8-12 4-19 4-16-6-33-8-11-32-34-4-47 3-1 6 8 8 8 3-11 7-31 22-30 23 2 0 31 10 37 7-7 1-24 10-30 14-9 8 11 7 15 2-1 4-2 7-2 1 5 0 9-3 12l9-1c3 4-21 34-22 32 2 8 43-38 26-4 3-1 6-1 8 1 2 4-10 13-8 15 8 0 7-12 13-12 28 18-12 20-13 28 1 4 20 0 18-1 14 4-16 19-16 21 2 18-16-1-16-1zM405 115.7c1.7-6 22.3-4.5 22.4-12.6 0-5-33.3-6-37 0 1.5 2 24.7 0 24.5 5-1 17-62-20-59-37 0-2 11-3 13-5s-9-4-7-7c4-5 43 0 13 4 7-1 6 26 16 1 3-8 14 22 16 23 1-1-2-33-4-34-3-1-40-5-40-14 1-9 79 30 83 31 19 6 40 2 46 22 3 10 10 10-4 19-5 3-22 4-25 0-1-1 24-1 26-8-2 9-35-2-39-2-20 5-30 20-47 19 0-2 4 1 0 0l2-4zM345-12.5c.3 13.7-10.6 58.7 5.8 66.3 5.4 2.5-.3 29.7-5.8 32.4-10 5-9.3-7-17.7-9C299 69.5 346-25 343.7-25.8c2.8 4 3.3 8.3 1.3 13 0 5.4.2-3 0 0v.3zM552.5 126c-4.7-.4-7.2 11-16.6 8.6-4-1-15-12.6-12-17 3-5.6 21 2.6 23 3.4 0-.5-3-9.8 0-12 7-7 34 52 35 54.3 1 4.3 25 45.2 21 49.6-9 7-33-26-33-29 0 0 2-57-18-58zm-150-195c7.2-5 9.2 11 13.2 10 7.7-1 15.7-1 24.7-7 6-4 7-12 14.4-18 2.7-3 16.2-4 16.4-5 5-9-12-26 4.6-27 21.6-2 11 29 3.5 36-7.7 7-14 3-22.6 9-6 4-31.5 26.8-35.8 26-5-1-25-20.3-19-24zm413.2 246.2c7.2-10 19-24 31.8-18.2 6.2 2.8-39.6 46.6-46.3 48.2-1.3 0 11.6-26 14.5-30z"/>
  <path d="M572.8 220.4c6.5-18 55.4 8 55.2 18.8 0 7.8-19.2-2.3-17-7.4-3 1-38-12.2-38.2-11.4zM390-24.6c-12-2.8 1-36.8 16.6-21.7C410.3-42.8 420-42 420-42s-10 13-30 17.4zm407.6-102c-5.5-16-65.2-18.2-68.7-39-1-4.4 60 16 68 39zM751 239c-7.8-.7-6.2-5.2-2-7 5.2-2.6 21.2-6.5 25-11 4.6-5.3 11.4-7.4 16-12.4 1.5-1.8 3.7-2.4 5.5-.3 1.7 2 1.4 3.8-.4 5.7-8 8.4-16 16.4-27 20.2-5 2-11 3.3-16 5-2-.3 6-1.7 0 0l-1-.2zm39.6-42.2c11 2-7.7 13.4-7.3 13.5-21-3 .7-22-.2-28.8 2-4 5-4.4 8-1.4 2 4 5 6 8 8 6 4-4 12-12 1-1 5 4 8 4 8zM379-96.2c.2 0-23.2 61-33 53.6 0 0 27.4-57.3 33-53.7zm-17.2 121c15.7 2.3 2.5-21.7 3-23 9.8-6 17 9.3 16.8 9.3 0 0 7.4 18-19.8 14zm77.5-105.2c-21.5-3 5.4-28.8 20-17 5.3 4-17.3 17-20 17-3-.5 1.3 0 0 0zM382-6.4c-3-12.8 23.6-1.3 23.2 9.4 0 0-21.7-3.7-23-9.4z"/>
  <path d="M382 10.6c8.3-.8 23.8 20.3 14 25.2-7.5 3.8-16-21-6.5-10.6-3.8-8-7.5-14.6-7.5-14.6zm442-84.8c-1 6-27.4-15-22.5-19.7 2.5-2 22.7 15 22.5 20-.6 4 0-1 0 0z"/>
</svg>
